<svg width="92" height="62" viewBox="0 0 92 62" fill="none" xmlns="http://www.w3.org/2000/svg">
    <path
        d="M10.8902 31.7391C11.0461 31.6519 11.1505 31.5995 11.2464 31.539C12.887 30.5279 14.3561 29.3567 15.6656 28.0407C18.3291 25.3646 20.2479 22.3416 21.3776 18.9593C21.8537 17.5346 22.1679 16.0862 22.1967 14.5988C22.2135 13.7253 22.1919 12.8548 21.9401 11.9997C21.7926 11.5009 21.6007 11.0184 21.2733 10.5842C21.0802 10.3276 20.8476 10.1028 20.5429 9.93549C20.3259 9.81539 20.104 9.77638 19.8474 9.85439C19.5116 9.95704 19.201 10.0977 18.9132 10.2752C18.2668 10.6735 17.7367 11.1703 17.251 11.7051C16.3816 12.6659 15.6824 13.715 15.0708 14.8082C14.1762 16.4065 13.5034 18.0755 12.9481 19.7795C12.4852 21.2022 12.1099 22.6424 11.8029 24.0959C11.641 24.8617 11.4851 25.6295 11.3448 26.3993C11.2212 27.0768 11.1169 27.7574 11.0174 28.4379C10.9574 28.8526 10.8998 29.2704 10.8818 29.6872C10.8567 30.2795 10.8698 30.8738 10.8675 31.4671C10.8675 31.5338 10.877 31.6016 10.8878 31.7391M85.9773 18.9686C85.9917 19.0507 86.0024 19.1349 86.0096 19.218C86.138 20.7516 85.1354 22.4925 84.4494 23.8701C82.8316 27.122 80.4488 30.0824 77.4015 32.4731C75.5307 33.941 73.4811 35.2015 71.2877 36.2957C69.5584 37.159 67.7644 37.9073 65.9139 38.554C63.7601 39.3064 61.5463 39.9069 59.2857 40.3719C58.2424 40.5865 57.1894 40.7671 56.1329 40.9283C55.2646 41.0607 54.3844 41.1377 53.5101 41.2424C52.3505 41.381 51.1836 41.4425 50.0155 41.4836C48.616 41.5319 47.2153 41.5421 45.8158 41.4662C45.2462 41.4354 44.6741 41.42 44.1057 41.3779C43.3346 41.3204 42.5647 41.2414 41.7947 41.1746C40.7394 41.0823 39.6961 40.9231 38.6527 40.764C37.4091 40.5741 36.1751 40.3401 34.9471 40.0876C31.4177 39.3608 27.9699 38.4021 24.5544 37.3561C22.2411 36.6468 19.9229 35.9447 17.5976 35.2641C15.6692 34.6995 13.7061 34.2345 11.7189 33.8404C11.4443 33.786 11.1709 33.7213 10.8567 33.7121C10.8519 33.8527 10.8447 33.9789 10.8447 34.1052C10.8447 36.2228 10.8471 38.3425 10.8447 40.4602C10.8447 41.3686 10.8387 42.2761 10.8255 43.1835C10.8231 43.4268 10.7859 43.6711 10.7619 43.9143C10.7331 44.2048 10.5461 44.3804 10.2199 44.4553C9.62384 44.5918 9.03741 44.5754 8.46417 44.3742C8.17875 44.2746 8.01925 44.1022 7.96888 43.8281C7.87174 43.3077 7.85855 42.7842 7.85135 42.2617C7.83456 41.0864 7.84656 39.911 7.85495 38.7357C7.85855 38.2235 7.87534 37.7113 7.90052 37.2001C7.9425 36.3625 8.00006 35.5269 8.04563 34.6903C8.05522 34.5066 8.04683 34.3218 8.04683 34.1144C7.95449 34.1175 7.87654 34.1175 7.80099 34.1247C7.47719 34.1555 7.15459 34.2068 6.8296 34.2191C6.32592 34.2386 5.82463 34.1966 5.34374 34.0477C5.14946 33.9872 4.96837 33.9081 4.82686 33.7777C4.65537 33.6197 4.64698 33.4441 4.79688 33.2717C4.90601 33.1465 5.05712 33.0695 5.21781 33.0038C5.64115 32.8293 6.09326 32.7533 6.55617 32.7235C6.97591 32.6958 7.39804 32.6927 7.81897 32.6794C7.89932 32.6773 7.97967 32.6794 8.08161 32.6794C8.102 32.588 8.12838 32.5131 8.13318 32.4361C8.15716 32.0286 8.17755 31.6221 8.19674 31.2156C8.23751 30.3205 8.27589 29.4244 8.31546 28.5293C8.36703 27.3663 8.42339 26.2033 8.47256 25.0403C8.55651 23.0037 8.57809 20.9672 8.53252 18.9296C8.50974 17.8826 8.43299 16.8376 8.33825 15.7926C8.2519 14.8277 8.08041 13.8741 7.92691 12.9184C7.91372 12.8384 7.90652 12.7552 7.91132 12.6752C7.95689 11.8581 8.85032 12.7039 8.98104 13.0139C9.39598 14.0024 9.685 15.0186 9.90926 16.0482C10.0616 16.7452 10.1659 17.4504 10.2666 18.1546C10.365 18.8351 10.4309 19.5198 10.5113 20.2024C10.5161 20.2425 10.5293 20.2825 10.5556 20.3954C10.618 20.2794 10.6528 20.2353 10.6684 20.185C11.0557 18.9737 11.515 17.782 12.0583 16.6138C12.7035 15.227 13.465 13.8916 14.416 12.6382C15.0696 11.776 15.7987 10.9661 16.7018 10.2824C17.2882 9.839 17.9358 9.48178 18.6913 9.28366C19.6075 9.04244 20.5178 9.06913 21.4124 9.35141C22.3142 9.63575 22.9222 10.1993 23.3552 10.9158C23.7149 11.5111 23.9188 12.1486 24.0495 12.8055C24.2582 13.8679 24.257 14.9355 24.1455 16.0072C24.016 17.2636 23.7317 18.4933 23.3192 19.7015C22.6992 21.5184 21.8129 23.2388 20.7 24.8729C19.2442 27.0132 17.4321 28.904 15.2675 30.5453C14.1354 31.4035 12.9278 32.1764 11.6194 32.8282C11.539 32.8683 11.4635 32.9145 11.3531 32.975C11.4287 33.0089 11.4695 33.0397 11.5162 33.0469C12.6783 33.2317 13.8272 33.4667 14.9725 33.7172C16.8157 34.1206 18.6362 34.5897 20.4398 35.1019C22.3982 35.6593 24.3529 36.229 26.3089 36.7956C28.5995 37.4587 30.9056 38.0777 33.2441 38.6064C35.2277 39.0549 37.2268 39.4481 39.2499 39.7458C40.3473 39.9069 41.4518 40.0332 42.5587 40.1369C44.7125 40.337 46.8699 40.3976 49.0334 40.3247C49.9568 40.2939 50.879 40.2416 51.7976 40.1379C52.7007 40.0363 53.6061 39.9531 54.5031 39.8238C55.8151 39.6328 57.1127 39.3814 58.3995 39.0837C60.8315 38.5222 63.1904 37.7862 65.4642 36.8603C69.7719 35.1091 73.7953 32.7071 76.8762 29.5671C79.2903 27.1076 80.8649 24.3186 81.8099 21.2145C82.1325 20.1542 82.7273 18.7448 83.6627 17.9708C84.9135 16.9382 85.7818 17.8692 85.9773 18.9706V18.9686Z"
        fill="#DBB368" />
    <path
        d="M32.0354 17.547C32.1254 17.5449 32.1554 17.4874 32.1853 17.4412C32.3772 17.1487 32.5763 16.8592 32.7526 16.5605C33.1447 15.8984 33.4661 15.2127 33.6472 14.4839C33.7539 14.0548 33.7923 13.6237 33.6952 13.1895C33.676 13.1033 33.6412 13.0181 33.6016 12.936C33.5657 12.86 33.5489 12.7666 33.4361 12.7225C33.285 12.82 33.2047 12.9514 33.1183 13.0786C32.8353 13.5016 32.6614 13.9614 32.5259 14.4316C32.3892 14.9007 32.2921 15.3759 32.2117 15.8553C32.1278 16.3542 32.0834 16.8561 32.0354 17.3581C32.0306 17.4166 32.0354 17.4751 32.0354 17.5459M30.8314 41.0361C30.7474 41.0628 30.6899 41.1244 30.6251 41.1757C30.4404 41.3246 30.2581 41.4765 30.0759 41.6274C28.4053 43.0193 26.8079 44.4687 25.3892 46.0557C24.3855 47.1776 23.4704 48.3499 22.7545 49.6278C22.2352 50.5558 21.8179 51.5125 21.6224 52.5349C21.4785 53.2945 21.4485 54.0459 21.65 54.7993C21.873 55.6308 22.3287 56.3452 23.0915 56.9057C23.4273 57.1541 23.8086 57.3327 24.2379 57.4364C24.4778 57.4949 24.714 57.4969 24.9539 57.4425C25.2225 57.383 25.478 57.2947 25.719 57.1756C26.0812 56.998 26.4038 56.7753 26.7024 56.5269C27.2013 56.1112 27.6078 55.6338 27.9628 55.1226C28.4605 54.4082 28.8454 53.6517 29.1656 52.8664C29.5146 52.0083 29.7892 51.1327 29.9931 50.2427C30.1382 49.6032 30.2534 48.9596 30.3685 48.316C30.45 47.8582 30.522 47.3973 30.5735 46.9364C30.6431 46.3082 30.6959 45.6779 30.7426 45.0476C30.8086 44.1813 30.871 43.3139 30.8746 42.4445C30.8758 42.039 30.8901 41.6346 30.8937 41.2301C30.8937 41.1665 30.9225 41.0926 30.8314 41.0361ZM33.5621 12.0737C33.6508 12.0922 33.7395 12.1158 33.8295 12.1271C34.3272 12.1918 34.6678 12.432 34.8812 12.8138C35.0599 13.131 35.1247 13.4718 35.1415 13.8187C35.1619 14.2263 35.0695 14.6245 34.9616 15.0187C34.6546 16.1376 34.0633 17.1497 33.3726 18.1238C32.972 18.6894 32.5307 19.2335 32.0486 19.7519C31.9263 19.8843 31.8651 20.0177 31.8639 20.183C31.8591 21.0422 31.834 21.9024 31.8471 22.7615C31.8615 23.709 31.9095 24.6575 31.9419 25.6049C31.9479 25.7825 31.9527 25.9601 31.9611 26.1376C31.9983 26.8777 32.0354 27.6189 32.0774 28.3579C32.1326 29.3249 32.1901 30.2919 32.2489 31.2578C32.2633 31.5041 32.2849 31.7505 32.3005 31.9969C32.352 32.7667 32.4 33.5356 32.4528 34.3044C32.5127 35.1821 32.5775 36.0587 32.6386 36.9363C32.6506 37.1139 32.653 37.2915 32.6626 37.4701C32.6638 37.5071 32.6746 37.544 32.6842 37.5943C32.8113 37.5871 32.8761 37.5101 32.9516 37.4588C33.6988 36.9476 34.4375 36.4251 35.1906 35.9201C37.2078 34.5692 39.2825 33.2872 41.3979 32.0523C42.8838 31.1849 44.3864 30.3411 45.9071 29.5179C47.5536 28.6259 49.2134 27.7533 50.9007 26.9198C52.6672 26.0473 54.4349 25.1758 56.2242 24.3382C58.1142 23.4534 60.021 22.5952 61.9374 21.7525C63.741 20.959 65.5591 20.1922 67.3819 19.4316C68.8726 18.8085 70.3764 18.208 71.8791 17.6055C73.0675 17.1281 74.2596 16.658 75.4552 16.193C76.9759 15.6018 78.5001 15.0167 80.0267 14.4387C80.859 14.1236 81.6973 13.8218 82.5404 13.5272C83.0728 13.3404 83.6125 13.1679 84.1569 13.0068C84.5275 12.897 84.9101 12.8251 85.3094 12.8456C85.5097 12.8559 85.6944 12.9021 85.8767 12.9637C85.9186 12.977 85.9594 12.9975 85.9966 13.0222C86.1705 13.1382 86.1801 13.2726 86.005 13.3886C85.8874 13.4667 85.7519 13.5252 85.6176 13.5806C85.1799 13.7572 84.7386 13.9265 84.3008 14.101C82.7035 14.7385 81.1049 15.3759 79.5087 16.0154C77.9533 16.6385 76.3978 17.2616 74.846 17.8898C72.9404 18.6627 71.0348 19.4388 69.1328 20.2169C67.0126 21.0842 64.9115 21.9865 62.8212 22.9052C60.3388 23.9943 57.8827 25.1245 55.4495 26.2916C52.1096 27.894 48.8248 29.5743 45.6121 31.3553C42.8034 32.9115 40.0608 34.5467 37.3996 36.2825C35.9042 37.2576 34.4459 38.2728 33.02 39.3219C32.9421 39.3794 32.8677 39.442 32.7802 39.5138C32.7802 39.5754 32.779 39.6442 32.7802 39.712C32.8221 41.1449 32.8293 42.5769 32.7826 44.0088C32.7586 44.7397 32.7106 45.4695 32.647 46.1983C32.5931 46.8183 32.5151 47.4373 32.4228 48.0542C32.328 48.6907 32.2237 49.3261 32.0906 49.9573C31.8903 50.8997 31.6253 51.8286 31.2691 52.7381C30.9453 53.5634 30.5568 54.363 30.0423 55.1165C29.5626 55.8207 29.0013 56.4663 28.2758 57.0011C27.5455 57.538 26.7252 57.925 25.7754 58.0861C25.1734 58.1888 24.5689 58.2155 23.9525 58.1487C23.1203 58.0594 22.3659 57.8162 21.692 57.3943C20.928 56.9159 20.3848 56.2887 20.0334 55.5373C19.7072 54.8383 19.5897 54.1095 19.6149 53.3612C19.646 52.4066 19.8823 51.4848 20.2505 50.5845C20.8177 49.1957 21.644 47.9218 22.601 46.7085C23.4932 45.5773 24.491 44.518 25.5487 43.4976C27.1125 41.9897 28.7939 40.5824 30.546 39.2357C30.6575 39.1505 30.763 39.0612 30.8818 38.9657C30.865 38.4617 30.8482 37.9587 30.829 37.4547C30.8254 37.3654 30.8122 37.2771 30.8086 37.1878C30.7798 36.3584 30.7546 35.529 30.7235 34.6996C30.6995 34.0971 30.6647 33.4955 30.6395 32.894C30.564 31.1469 30.48 29.3998 30.4248 27.6517C30.3709 25.9036 30.3577 24.1555 30.3757 22.4064C30.3781 22.1497 30.3913 21.8931 30.3961 21.6365C30.3961 21.5924 30.3853 21.5472 30.3745 21.4651C30.3001 21.5184 30.2545 21.5441 30.2186 21.578C28.837 22.8406 27.3512 24.0097 25.8725 25.1881C25.105 25.7999 24.3399 26.4169 23.6407 27.0882C23.3193 27.3972 23.0171 27.7236 22.7329 28.0582C22.3072 28.5581 22.0086 29.1145 21.885 29.7273C21.7555 30.3699 21.7819 31.0063 22.0829 31.6171C22.1321 31.7166 22.2004 31.809 22.2664 31.9014C22.3671 32.043 22.5074 32.1334 22.7065 32.159C22.7941 32.1703 22.8816 32.2063 22.9584 32.2442C23.0291 32.2802 23.0267 32.391 22.9512 32.4187C22.8372 32.4629 22.7161 32.5091 22.595 32.5173C22.1369 32.5491 21.7303 32.4403 21.3909 32.1642C20.982 31.8326 20.7541 31.4148 20.6306 30.956C20.4711 30.3606 20.4783 29.7581 20.639 29.1637C20.7649 28.6987 20.9964 28.2697 21.2902 27.8642C21.7495 27.2309 22.3156 26.6735 22.9128 26.1366C23.7163 25.414 24.5665 24.7324 25.4132 24.0487C26.64 23.0602 27.8621 22.0686 29.0001 21.0042C29.4595 20.5741 29.8948 20.1265 30.3445 19.6892C30.456 19.5815 30.5112 19.4665 30.5208 19.3166C30.558 18.7346 30.5987 18.1526 30.6659 17.5726C30.7678 16.6991 30.8698 15.8245 31.082 14.9643C31.2391 14.3269 31.4298 13.6956 31.7872 13.1135C31.8831 12.9565 31.9935 12.8046 32.1194 12.6639C32.3892 12.3622 32.7406 12.1692 33.1915 12.124C33.2706 12.1158 33.3474 12.0922 33.4253 12.0758C33.4721 12.0758 33.5189 12.0758 33.5645 12.0758L33.5621 12.0737Z"
        fill="#DBB368" />
    <path
        d="M52.7703 20.1665L52.6863 20.1963L52.6504 20.2147L52.6036 20.2999L52.5916 20.3595C52.5868 20.5986 52.5328 20.8265 52.3973 21.1365L52.245 21.3141L52.1527 21.3244L52.1119 21.2864C52.0328 21.1632 51.9944 21.0298 51.9968 20.8522L51.9944 20.7321L51.9824 20.6099L51.9116 20.573L51.8433 20.5966L51.8229 20.6099L51.7785 20.6489L51.7701 20.6787C51.7341 20.806 51.721 20.9312 51.7425 21.1776L51.9236 21.5194L52.215 21.5081C52.2618 21.4958 52.3146 21.4773 52.3721 21.4527L52.5592 21.2648L52.6048 21.2002L52.6492 21.1355L52.6768 21.1232L52.7079 21.1437L52.7271 21.2402L52.5952 21.4044L52.4513 21.5594L52.4189 21.5913C52.1875 21.8294 51.962 22.0696 51.7437 22.3149L51.1225 23.0694C51.017 23.2141 50.9259 23.3619 50.8047 23.5919L50.7604 23.7541C50.7352 23.9204 50.8119 24.0302 51.0842 24.1031L51.2904 24.1103L51.974 24.0056L52.034 23.9891L52.7043 23.6761C52.9118 23.5334 53.0521 23.363 53.1229 23.1628C53.1948 22.9626 53.2248 22.7512 53.2116 22.5325L53.1337 21.8889C53.1181 21.7832 53.1049 21.6795 53.0821 21.4958L53.0509 21.3213L53.0425 21.2073L53.1157 21.1057L53.2284 20.9938C53.3879 20.8009 53.4886 20.65 53.5834 20.4344L53.5366 20.3379H53.5198C53.4755 20.3513 53.3939 20.4508 53.2236 20.7341L53.0353 20.9076L52.9922 20.8594L52.9682 20.7649L52.9646 20.692L52.9586 20.6695C52.9394 20.5319 52.9154 20.3964 52.8782 20.2209L52.7739 20.1675L52.7703 20.1665ZM52.7247 21.5389L52.7487 21.5543L52.7775 21.6046V21.6487L52.7943 21.7545L52.8279 21.9423C52.8698 22.1538 52.8974 22.3663 52.9106 22.5869L52.8243 23.2039C52.7535 23.3968 52.612 23.5529 52.3901 23.674L51.9392 23.8495L51.3456 23.9265C51.1825 23.9265 51.0806 23.8957 50.9942 23.7695L51.0674 23.5303C51.1441 23.3661 51.2437 23.209 51.3576 23.0602L51.9464 22.3529C52.1539 22.125 52.3602 21.8971 52.5952 21.6405L52.6576 21.5748L52.7007 21.5471L52.7223 21.5358H52.7247V21.5389Z"
        fill="#DBB368" />
    <mask id="mask0_1406_2469" style="mask-type:luminance" maskUnits="userSpaceOnUse" x="50" y="20"
        width="4" height="5">
        <path
            d="M52.7703 20.1665L52.6863 20.1963L52.6504 20.2147L52.6036 20.2999L52.5916 20.3595C52.5868 20.5986 52.5328 20.8265 52.3973 21.1365L52.245 21.3141L52.1527 21.3244L52.1119 21.2864C52.0328 21.1632 51.9944 21.0298 51.9968 20.8522L51.9944 20.7321L51.9824 20.6099L51.9116 20.573L51.8433 20.5966L51.8229 20.6099L51.7785 20.6489L51.7701 20.6787C51.7341 20.806 51.721 20.9312 51.7425 21.1776L51.9236 21.5194L52.215 21.5081C52.2618 21.4958 52.3146 21.4773 52.3721 21.4527L52.5592 21.2648L52.6048 21.2002L52.6492 21.1355L52.6768 21.1232L52.7079 21.1437L52.7271 21.2402L52.5952 21.4044L52.4513 21.5594L52.4189 21.5913C52.1875 21.8294 51.962 22.0696 51.7437 22.3149L51.1225 23.0694C51.017 23.2141 50.9259 23.3619 50.8047 23.5919L50.7604 23.7541C50.7352 23.9204 50.8119 24.0302 51.0842 24.1031L51.2904 24.1103L51.974 24.0056L52.034 23.9891L52.7043 23.6761C52.9118 23.5334 53.0521 23.363 53.1229 23.1628C53.1948 22.9626 53.2248 22.7512 53.2116 22.5325L53.1337 21.8889C53.1181 21.7832 53.1049 21.6795 53.0821 21.4958L53.0509 21.3213L53.0425 21.2073L53.1157 21.1057L53.2284 20.9938C53.3879 20.8009 53.4886 20.65 53.5834 20.4344L53.5366 20.3379H53.5198C53.4755 20.3513 53.3939 20.4508 53.2236 20.7341L53.0353 20.9076L52.9922 20.8594L52.9682 20.7649L52.9646 20.692L52.9586 20.6695C52.9394 20.5319 52.9154 20.3964 52.8782 20.2209L52.7739 20.1675L52.7703 20.1665ZM52.7247 21.5389L52.7487 21.5543L52.7775 21.6046V21.6487L52.7943 21.7545L52.8279 21.9423C52.8698 22.1538 52.8974 22.3663 52.9106 22.5869L52.8243 23.2039C52.7535 23.3968 52.612 23.5529 52.3901 23.674L51.9392 23.8495L51.3456 23.9265C51.1825 23.9265 51.0806 23.8957 50.9942 23.7695L51.0674 23.5303C51.1441 23.3661 51.2437 23.209 51.3576 23.0602L51.9464 22.3529C52.1539 22.125 52.3602 21.8971 52.5952 21.6405L52.6576 21.5748L52.7007 21.5471L52.7223 21.5358H52.7247V21.5389Z"
            fill="white" />
    </mask>
    <g mask="url(#mask0_1406_2469)">
        <path d="M53.4187 19.9868L49.6865 20.9935L50.9037 24.2997L54.6359 23.293L53.4187 19.9868Z"
            fill="#DBB368" />
        <mask id="mask1_1406_2469" style="mask-type:luminance" maskUnits="userSpaceOnUse" x="49"
            y="19" width="6" height="6">
            <path
                d="M53.4187 19.9868L49.6865 20.9935L50.9037 24.2997L54.6359 23.293L53.4187 19.9868Z"
                fill="white" />
        </mask>
        <g mask="url(#mask1_1406_2469)">
            <path
                d="M53.4197 19.9868L49.7024 20.9894L50.9148 24.2829L54.6322 23.2802L53.4197 19.9868Z"
                fill="#DBB368" />
        </g>
    </g>
    <path
        d="M50.5266 18.9174L50.4535 18.9533L50.3887 19.0088L50.3767 19.1186L50.3839 19.3393V19.4625C50.3863 19.6236 50.3911 19.7848 50.3923 19.9511L50.4091 21.1059C50.4199 21.4908 50.4427 21.8542 50.4906 22.2299L50.5002 22.2566L50.5806 22.2915L50.6262 22.2812L50.6717 22.2453L50.6921 22.1817L50.7161 22.1375L50.872 22.1765L51.1214 22.1365C51.239 22.0954 51.3457 22.0164 51.4332 21.8983L51.564 21.3502C51.5604 21.149 51.5004 20.9776 51.3829 20.8359C51.2989 20.723 51.1898 20.683 51.0027 20.7333L50.9416 20.7569L50.7545 20.9211L50.6825 20.9386L50.6861 20.6276C50.6825 20.4746 50.6813 20.3442 50.6777 20.1964L50.6753 20.103C50.6609 19.794 50.6393 19.483 50.6226 19.1597L50.6178 19.0652L50.583 18.9133L50.5482 18.9102L50.5254 18.9164L50.5266 18.9174ZM51.0531 20.9129L51.1082 20.9057L51.2042 21.0689L51.2414 21.2393C51.251 21.3512 51.2474 21.4621 51.2102 21.6879L51.1047 21.9476L50.9823 21.9784C50.914 21.9733 50.8564 21.9343 50.7125 21.769L50.7017 21.5042C50.7269 21.3615 50.7773 21.228 50.932 20.9796L51.0507 20.9129H51.0531Z"
        fill="#DBB368" />
    <mask id="mask2_1406_2469" style="mask-type:luminance" maskUnits="userSpaceOnUse" x="50" y="18"
        width="2" height="5">
        <path
            d="M50.5266 18.9174L50.4535 18.9533L50.3887 19.0088L50.3767 19.1186L50.3839 19.3393V19.4625C50.3863 19.6236 50.3911 19.7848 50.3923 19.9511L50.4091 21.1059C50.4199 21.4908 50.4427 21.8542 50.4906 22.2299L50.5002 22.2566L50.5806 22.2915L50.6262 22.2812L50.6717 22.2453L50.6921 22.1817L50.7161 22.1375L50.872 22.1765L51.1214 22.1365C51.239 22.0954 51.3457 22.0164 51.4332 21.8983L51.564 21.3502C51.5604 21.149 51.5004 20.9776 51.3829 20.8359C51.2989 20.723 51.1898 20.683 51.0027 20.7333L50.9416 20.7569L50.7545 20.9211L50.6825 20.9386L50.6861 20.6276C50.6825 20.4746 50.6813 20.3442 50.6777 20.1964L50.6753 20.103C50.6609 19.794 50.6393 19.483 50.6226 19.1597L50.6178 19.0652L50.583 18.9133L50.5482 18.9102L50.5254 18.9164L50.5266 18.9174ZM51.0531 20.9129L51.1082 20.9057L51.2042 21.0689L51.2414 21.2393C51.251 21.3512 51.2474 21.4621 51.2102 21.6879L51.1047 21.9476L50.9823 21.9784C50.914 21.9733 50.8564 21.9343 50.7125 21.769L50.7017 21.5042C50.7269 21.3615 50.7773 21.228 50.932 20.9796L51.0507 20.9129H51.0531Z"
            fill="white" />
    </mask>
    <g mask="url(#mask2_1406_2469)">
        <path d="M50.7105 18.8623L49.3872 19.2195L50.5246 22.3072L51.8479 21.95L50.7105 18.8623Z"
            fill="#DBB368" />
        <mask id="mask3_1406_2469" style="mask-type:luminance" maskUnits="userSpaceOnUse" x="49"
            y="18" width="3" height="5">
            <path
                d="M50.7105 18.8623L49.3872 19.2195L50.5246 22.3072L51.8479 21.95L50.7105 18.8623Z"
                fill="white" />
        </mask>
        <g mask="url(#mask3_1406_2469)">
            <path
                d="M50.7093 18.8613L49.386 19.2184L50.5219 22.3022L51.8452 21.9451L50.7093 18.8613Z"
                fill="#DBB368" />
        </g>
    </g>
    <path
        d="M64.523 7.65871L64.4366 7.70593L64.3899 7.85682C64.3899 7.92765 64.3899 7.99232 64.3839 8.18633L64.3623 8.44398C64.2436 9.96626 64.0709 11.4875 63.8514 13.0077L63.6919 13.9767C63.6559 14.182 63.6152 14.3884 63.5624 14.723L63.3585 14.8647C62.8872 15.072 62.4171 15.2906 61.9554 15.5185L59.2895 16.9453C58.9273 17.164 58.5735 17.3919 58.2282 17.6321L57.2244 18.3937C57.0301 18.5621 56.8406 18.7366 56.6548 18.9172L56.1499 19.4941C55.9904 19.7025 55.8585 19.9222 55.7613 20.1624L55.657 20.6592C55.6594 20.8275 55.705 20.9918 55.8693 21.2905L56.0875 21.4865C56.205 21.5758 56.3406 21.6508 56.4917 21.7113L57.1632 21.8581C57.7629 21.9136 58.3505 21.8653 58.9285 21.7134L58.9609 21.7042L59.5965 21.4896C60.4312 21.1509 61.1279 20.6438 61.6808 19.9714L62.6006 18.5405C62.8069 18.1515 62.9868 17.7481 63.1331 17.3364L63.5252 16.0862C63.5996 15.7998 63.6715 15.5103 63.7555 15.1521L63.801 14.9591L63.861 14.8277L63.951 14.7671C63.9929 14.7487 64.0337 14.7322 64.222 14.645L64.5194 14.5156L64.541 14.5002L64.5925 14.4869L64.6621 14.5208L64.6813 14.6245L64.6861 14.724V14.7723C64.6921 14.7907 64.6933 14.8123 64.6909 14.8308L64.8348 16.3079C64.86 16.4752 64.8912 16.6384 64.9295 16.7945L65.089 17.2461L65.0962 17.2584C65.1286 17.3457 65.1766 17.4247 65.3601 17.6095L65.6851 17.5068L65.7054 17.473L65.703 17.4391L65.5675 17.396L65.4284 17.2646C65.3721 17.1876 65.3325 17.1024 65.3061 17.008L65.0998 16.0985C65.0363 15.6212 64.9955 15.1428 64.9679 14.607L64.9547 14.4499L64.9583 14.3381L65.0363 14.2796L65.1958 14.2149L65.3097 14.1636C66.5437 13.6041 67.7945 13.0786 69.1964 12.5345L69.4699 12.4267C69.7697 12.3005 70.0767 12.1835 70.4197 12.0695L70.4712 12.0254L70.4868 11.9936L70.4784 11.9689L70.4616 11.9515L70.3981 11.9392L70.2734 11.9638L70.169 12.0049L70.1007 12.0326L70.0467 12.0541C69.7229 12.1701 69.3991 12.2964 69.0777 12.4298L66.1408 13.6277C65.9645 13.7027 65.787 13.7755 65.4776 13.9131L65.2042 14.0281L65.1382 14.0609L65.0483 14.0979L64.9595 14.0804L64.9355 14.0147L64.9283 13.9562L64.9307 13.8998L64.9211 13.8228C64.9127 13.637 64.9032 13.4512 64.896 13.2644L64.8204 11.352C64.7868 10.5298 64.7556 9.70861 64.7185 8.80222L64.7089 8.62156C64.6909 8.37109 64.6885 8.11447 64.7005 7.81987L64.6969 7.69259L64.6021 7.63818L64.5182 7.66076L64.523 7.65871ZM63.4197 15.0299L63.4677 15.0515L63.4725 15.1172L63.4677 15.1767C63.3633 15.6304 63.2482 16.0821 63.1187 16.5296L62.6522 17.8558C62.3883 18.4902 62.0526 19.0958 61.6424 19.6655L61.0872 20.3246C60.8905 20.5299 60.6638 20.7198 60.4168 20.8891L59.726 21.2761L59.0221 21.5204C58.4188 21.6826 57.8204 21.7247 57.2304 21.6487L56.5936 21.4711C56.3178 21.3428 56.1307 21.1632 56.03 20.9353C55.9304 20.7105 55.9316 20.4559 56.0371 20.1726L56.4125 19.5147C56.5672 19.3083 56.7339 19.1174 56.9138 18.9398L57.4738 18.4399C57.842 18.1351 58.2246 17.8517 58.6239 17.5859L59.8507 16.8222C60.9468 16.1919 62.0801 15.6181 63.259 15.0966L63.3261 15.0648L63.3957 15.0412L63.4149 15.0309H63.4173L63.4197 15.0299ZM64.451 10.7453L64.475 10.8264C64.487 10.9045 64.499 11.0246 64.5098 11.1919L64.541 11.7144C64.5506 11.9001 64.5566 12.0603 64.5662 12.3395L64.5758 12.4524C64.5949 12.9923 64.6237 13.5312 64.6597 14.1307L64.5973 14.2775L64.4786 14.3452C64.3815 14.3863 64.2879 14.4315 64.1368 14.5044L63.9749 14.5752L63.8994 14.5475L63.9186 14.3884L63.9581 14.1985C63.9653 14.1471 63.9725 14.0989 63.9773 14.0476L64.2208 12.553C64.2831 12.051 64.3491 11.5501 64.4151 10.9886L64.4342 10.8511L64.4378 10.8162L64.4474 10.7464H64.4498L64.451 10.7453Z"
        fill="#DBB368" />
    <mask id="mask4_1406_2469" style="mask-type:luminance" maskUnits="userSpaceOnUse" x="55" y="7"
        width="16" height="15">
        <path
            d="M64.523 7.65871L64.4366 7.70593L64.3899 7.85682C64.3899 7.92765 64.3899 7.99232 64.3839 8.18633L64.3623 8.44398C64.2436 9.96626 64.0709 11.4875 63.8514 13.0077L63.6919 13.9767C63.6559 14.182 63.6152 14.3884 63.5624 14.723L63.3585 14.8647C62.8872 15.072 62.4171 15.2906 61.9554 15.5185L59.2895 16.9453C58.9273 17.164 58.5735 17.3919 58.2282 17.6321L57.2244 18.3937C57.0301 18.5621 56.8406 18.7366 56.6548 18.9172L56.1499 19.4941C55.9904 19.7025 55.8585 19.9222 55.7613 20.1624L55.657 20.6592C55.6594 20.8275 55.705 20.9918 55.8693 21.2905L56.0875 21.4865C56.205 21.5758 56.3406 21.6508 56.4917 21.7113L57.1632 21.8581C57.7629 21.9136 58.3505 21.8653 58.9285 21.7134L58.9609 21.7042L59.5965 21.4896C60.4312 21.1509 61.1279 20.6438 61.6808 19.9714L62.6006 18.5405C62.8069 18.1515 62.9868 17.7481 63.1331 17.3364L63.5252 16.0862C63.5996 15.7998 63.6715 15.5103 63.7555 15.1521L63.801 14.9591L63.861 14.8277L63.951 14.7671C63.9929 14.7487 64.0337 14.7322 64.222 14.645L64.5194 14.5156L64.541 14.5002L64.5925 14.4869L64.6621 14.5208L64.6813 14.6245L64.6861 14.724V14.7723C64.6921 14.7907 64.6933 14.8123 64.6909 14.8308L64.8348 16.3079C64.86 16.4752 64.8912 16.6384 64.9295 16.7945L65.089 17.2461L65.0962 17.2584C65.1286 17.3457 65.1766 17.4247 65.3601 17.6095L65.6851 17.5068L65.7054 17.473L65.703 17.4391L65.5675 17.396L65.4284 17.2646C65.3721 17.1876 65.3325 17.1024 65.3061 17.008L65.0998 16.0985C65.0363 15.6212 64.9955 15.1428 64.9679 14.607L64.9547 14.4499L64.9583 14.3381L65.0363 14.2796L65.1958 14.2149L65.3097 14.1636C66.5437 13.6041 67.7945 13.0786 69.1964 12.5345L69.4699 12.4267C69.7697 12.3005 70.0767 12.1835 70.4197 12.0695L70.4712 12.0254L70.4868 11.9936L70.4784 11.9689L70.4616 11.9515L70.3981 11.9392L70.2734 11.9638L70.169 12.0049L70.1007 12.0326L70.0467 12.0541C69.7229 12.1701 69.3991 12.2964 69.0777 12.4298L66.1408 13.6277C65.9645 13.7027 65.787 13.7755 65.4776 13.9131L65.2042 14.0281L65.1382 14.0609L65.0483 14.0979L64.9595 14.0804L64.9355 14.0147L64.9283 13.9562L64.9307 13.8998L64.9211 13.8228C64.9127 13.637 64.9032 13.4512 64.896 13.2644L64.8204 11.352C64.7868 10.5298 64.7556 9.70861 64.7185 8.80222L64.7089 8.62156C64.6909 8.37109 64.6885 8.11447 64.7005 7.81987L64.6969 7.69259L64.6021 7.63818L64.5182 7.66076L64.523 7.65871ZM63.4197 15.0299L63.4677 15.0515L63.4725 15.1172L63.4677 15.1767C63.3633 15.6304 63.2482 16.0821 63.1187 16.5296L62.6522 17.8558C62.3883 18.4902 62.0526 19.0958 61.6424 19.6655L61.0872 20.3246C60.8905 20.5299 60.6638 20.7198 60.4168 20.8891L59.726 21.2761L59.0221 21.5204C58.4188 21.6826 57.8204 21.7247 57.2304 21.6487L56.5936 21.4711C56.3178 21.3428 56.1307 21.1632 56.03 20.9353C55.9304 20.7105 55.9316 20.4559 56.0371 20.1726L56.4125 19.5147C56.5672 19.3083 56.7339 19.1174 56.9138 18.9398L57.4738 18.4399C57.842 18.1351 58.2246 17.8517 58.6239 17.5859L59.8507 16.8222C60.9468 16.1919 62.0801 15.6181 63.259 15.0966L63.3261 15.0648L63.3957 15.0412L63.4149 15.0309H63.4173L63.4197 15.0299ZM64.451 10.7453L64.475 10.8264C64.487 10.9045 64.499 11.0246 64.5098 11.1919L64.541 11.7144C64.5506 11.9001 64.5566 12.0603 64.5662 12.3395L64.5758 12.4524C64.5949 12.9923 64.6237 13.5312 64.6597 14.1307L64.5973 14.2775L64.4786 14.3452C64.3815 14.3863 64.2879 14.4315 64.1368 14.5044L63.9749 14.5752L63.8994 14.5475L63.9186 14.3884L63.9581 14.1985C63.9653 14.1471 63.9725 14.0989 63.9773 14.0476L64.2208 12.553C64.2831 12.051 64.3491 11.5501 64.4151 10.9886L64.4342 10.8511L64.4378 10.8162L64.4474 10.7464H64.4498L64.451 10.7453Z"
            fill="white" />
    </mask>
    <g mask="url(#mask4_1406_2469)">
        <path d="M68.5166 6.57861L52.0059 11.0318L56.2076 22.4454L72.7184 17.9922L68.5166 6.57861Z"
            fill="#DBB368" />
        <mask id="mask5_1406_2469" style="mask-type:luminance" maskUnits="userSpaceOnUse" x="52"
            y="6" width="21" height="17">
            <path
                d="M68.5166 6.57861L52.0059 11.0318L56.2076 22.4454L72.7184 17.9922L68.5166 6.57861Z"
                fill="white" />
        </mask>
        <g mask="url(#mask5_1406_2469)">
            <path
                d="M68.5155 6.57959L52.0574 11.0186L56.2588 22.4312L72.7169 17.9922L68.5155 6.57959Z"
                fill="#DBB368" />
        </g>
    </g>
    <path
        d="M67.3507 13.9724L67.2799 14.0155L67.1744 14.1377C67.1144 14.2105 67.0593 14.2844 66.9705 14.4158L66.8638 14.5678L66.805 14.6324L66.7714 14.615L66.7571 14.501L66.7295 14.4199L66.6095 14.3871L66.4908 14.4497L66.4225 14.5103C66.3589 14.5719 66.3025 14.6427 66.2126 14.7679L66.1155 14.9229L66.0039 15.081L65.9368 15.0902L65.9128 14.9517L65.8936 14.8069L65.8612 14.5986L65.6969 14.5955L65.637 14.7012L65.6406 14.7587C65.6418 14.7669 65.6418 14.7792 65.643 14.7885L65.6609 15.6025L65.6561 15.6507L65.6645 15.7205L65.6741 15.7482L65.7473 15.7903L65.8768 15.7359L65.9608 15.6179L66.0183 15.4988L66.0975 15.352C66.1874 15.1939 66.2606 15.0707 66.3733 14.8901L66.4213 14.8192L66.4692 14.8336L66.4836 14.8737L66.468 15.0533L66.4453 15.2391L66.4596 15.3243L66.5484 15.3633L66.6407 15.3387L66.7367 15.2699L66.7942 15.1672L66.8182 15.1241L66.8878 14.9732L66.9573 14.847C67.0353 14.6971 67.1192 14.5513 67.2428 14.3573L67.2931 14.3276L67.3099 14.3573C67.3171 14.3779 67.3387 14.4815 67.4178 14.8521L67.6493 14.8757C67.7908 14.8295 67.9227 14.7238 68.0462 14.5585C68.1686 14.3963 68.2381 14.2619 68.2729 14.0699L68.2645 14.0463L68.1842 14.0052L68.1086 14.0812C68.0966 14.1007 68.0414 14.1941 67.8448 14.5144L67.7105 14.5873C67.6505 14.5811 67.6193 14.5082 67.5989 14.2331L67.5222 13.9385L67.3519 13.9755L67.3507 13.9724Z"
        fill="#DBB368" />
    <mask id="mask6_1406_2469" style="mask-type:luminance" maskUnits="userSpaceOnUse" x="65" y="13"
        width="4" height="3">
        <path
            d="M67.3507 13.9724L67.2799 14.0155L67.1744 14.1377C67.1144 14.2105 67.0593 14.2844 66.9705 14.4158L66.8638 14.5678L66.805 14.6324L66.7714 14.615L66.7571 14.501L66.7295 14.4199L66.6095 14.3871L66.4908 14.4497L66.4225 14.5103C66.3589 14.5719 66.3025 14.6427 66.2126 14.7679L66.1155 14.9229L66.0039 15.081L65.9368 15.0902L65.9128 14.9517L65.8936 14.8069L65.8612 14.5986L65.6969 14.5955L65.637 14.7012L65.6406 14.7587C65.6418 14.7669 65.6418 14.7792 65.643 14.7885L65.6609 15.6025L65.6561 15.6507L65.6645 15.7205L65.6741 15.7482L65.7473 15.7903L65.8768 15.7359L65.9608 15.6179L66.0183 15.4988L66.0975 15.352C66.1874 15.1939 66.2606 15.0707 66.3733 14.8901L66.4213 14.8192L66.4692 14.8336L66.4836 14.8737L66.468 15.0533L66.4453 15.2391L66.4596 15.3243L66.5484 15.3633L66.6407 15.3387L66.7367 15.2699L66.7942 15.1672L66.8182 15.1241L66.8878 14.9732L66.9573 14.847C67.0353 14.6971 67.1192 14.5513 67.2428 14.3573L67.2931 14.3276L67.3099 14.3573C67.3171 14.3779 67.3387 14.4815 67.4178 14.8521L67.6493 14.8757C67.7908 14.8295 67.9227 14.7238 68.0462 14.5585C68.1686 14.3963 68.2381 14.2619 68.2729 14.0699L68.2645 14.0463L68.1842 14.0052L68.1086 14.0812C68.0966 14.1007 68.0414 14.1941 67.8448 14.5144L67.7105 14.5873C67.6505 14.5811 67.6193 14.5082 67.5989 14.2331L67.5222 13.9385L67.3519 13.9755L67.3507 13.9724Z"
            fill="white" />
    </mask>
    <g mask="url(#mask6_1406_2469)">
        <path d="M68.1623 13.7563L65.2317 14.5462L65.6949 15.8053L68.6255 15.0154L68.1623 13.7563Z"
            fill="#DBB368" />
        <mask id="mask7_1406_2469" style="mask-type:luminance" maskUnits="userSpaceOnUse" x="65"
            y="13" width="4" height="3">
            <path
                d="M68.1623 13.7563L65.2317 14.5462L65.6949 15.8053L68.6255 15.0154L68.1623 13.7563Z"
                fill="white" />
        </mask>
        <g mask="url(#mask7_1406_2469)">
            <path
                d="M68.1565 13.7485L65.2329 14.5371L65.6964 15.7961L68.62 15.0076L68.1565 13.7485Z"
                fill="#DBB368" />
        </g>
    </g>
    <path
        d="M68.7251 13.2467C68.6172 13.2847 68.5248 13.3463 68.4517 13.4294L68.1279 13.9293C68.0679 14.0843 68.0403 14.2393 68.0535 14.4867L68.0763 14.5493L68.2322 14.6746L68.4241 14.6273C68.5728 14.5729 68.6879 14.4857 68.8103 14.3184L69.0501 14.1706L69.3127 14.188C69.4183 14.1593 69.5406 14.0792 69.6809 13.9478L69.7361 13.8626L69.7433 13.8595C69.7828 13.7979 69.8128 13.7333 69.8644 13.5967L69.8872 13.4007L69.8764 13.3709L69.7649 13.3247L69.7061 13.4366C69.6845 13.5095 69.6545 13.5967 69.5754 13.7908L69.3943 13.9827L69.236 13.9909L69.1508 13.7364L69.1065 13.5752L68.9374 13.5988C68.8666 13.6378 68.8246 13.6891 68.8019 13.7528L68.6148 14.1541L68.6028 14.186L68.5392 14.2958L68.4613 14.3769L68.3881 14.3974L68.3689 14.3605L68.3629 14.3389C68.3533 14.072 68.4313 13.8236 68.6364 13.5454L68.7527 13.4489L68.8942 13.489L68.9122 13.4859L68.9757 13.4818L69.0393 13.3791L68.9266 13.2344L68.7215 13.2477L68.7251 13.2467Z"
        fill="#DBB368" />
    <mask id="mask8_1406_2469" style="mask-type:luminance" maskUnits="userSpaceOnUse" x="68" y="13"
        width="2" height="2">
        <path
            d="M68.7251 13.2467C68.6172 13.2847 68.5248 13.3463 68.4517 13.4294L68.1279 13.9293C68.0679 14.0843 68.0403 14.2393 68.0535 14.4867L68.0763 14.5493L68.2322 14.6746L68.4241 14.6273C68.5728 14.5729 68.6879 14.4857 68.8103 14.3184L69.0501 14.1706L69.3127 14.188C69.4183 14.1593 69.5406 14.0792 69.6809 13.9478L69.7361 13.8626L69.7433 13.8595C69.7828 13.7979 69.8128 13.7333 69.8644 13.5967L69.8872 13.4007L69.8764 13.3709L69.7649 13.3247L69.7061 13.4366C69.6845 13.5095 69.6545 13.5967 69.5754 13.7908L69.3943 13.9827L69.236 13.9909L69.1508 13.7364L69.1065 13.5752L68.9374 13.5988C68.8666 13.6378 68.8246 13.6891 68.8019 13.7528L68.6148 14.1541L68.6028 14.186L68.5392 14.2958L68.4613 14.3769L68.3881 14.3974L68.3689 14.3605L68.3629 14.3389C68.3533 14.072 68.4313 13.8236 68.6364 13.5454L68.7527 13.4489L68.8942 13.489L68.9122 13.4859L68.9757 13.4818L69.0393 13.3791L68.9266 13.2344L68.7215 13.2477L68.7251 13.2467Z"
            fill="white" />
    </mask>
    <g mask="url(#mask8_1406_2469)">
        <path d="M69.7336 12.9766L67.7 13.5251L68.1368 14.7117L70.1705 14.1631L69.7336 12.9766Z"
            fill="#DBB368" />
        <mask id="mask9_1406_2469" style="mask-type:luminance" maskUnits="userSpaceOnUse" x="67"
            y="12" width="4" height="3">
            <path d="M69.7336 12.9766L67.7 13.5251L68.1368 14.7117L70.1705 14.1631L69.7336 12.9766Z"
                fill="white" />
        </mask>
        <g mask="url(#mask9_1406_2469)">
            <path d="M69.7336 12.9756L67.7 13.5241L68.135 14.7058L70.1687 14.1573L69.7336 12.9756Z"
                fill="#DBB368" />
        </g>
    </g>
    <path
        d="M69.5381 10.6223L69.4745 10.7249L69.4709 10.8019C69.5165 11.232 69.5633 11.7894 69.6065 12.4741C69.6544 13.1577 69.7456 13.5868 69.8787 13.7551C69.9962 13.8917 70.1233 13.943 70.2565 13.9071C70.2876 13.8988 70.3176 13.8845 70.35 13.867L70.7625 13.4657C70.8693 13.2901 70.9544 13.1023 71.0144 12.8682L71.0108 12.86L70.9712 12.82L70.8873 12.8703L70.8225 13.0089L70.7373 13.1895C70.6822 13.2983 70.5874 13.4205 70.3236 13.6997L70.1066 13.594C70.0106 13.4749 69.8847 12.509 69.7192 10.6531L69.646 10.61L69.6053 10.6069L69.5909 10.6089L69.5393 10.6233L69.5381 10.6223Z"
        fill="#DBB368" />
    <mask id="mask10_1406_2469" style="mask-type:luminance" maskUnits="userSpaceOnUse" x="69" y="10"
        width="3" height="4">
        <path
            d="M69.5381 10.6223L69.4745 10.7249L69.4709 10.8019C69.5165 11.232 69.5633 11.7894 69.6065 12.4741C69.6544 13.1577 69.7456 13.5868 69.8787 13.7551C69.9962 13.8917 70.1233 13.943 70.2565 13.9071C70.2876 13.8988 70.3176 13.8845 70.35 13.867L70.7625 13.4657C70.8693 13.2901 70.9544 13.1023 71.0144 12.8682L71.0108 12.86L70.9712 12.82L70.8873 12.8703L70.8225 13.0089L70.7373 13.1895C70.6822 13.2983 70.5874 13.4205 70.3236 13.6997L70.1066 13.594C70.0106 13.4749 69.8847 12.509 69.7192 10.6531L69.646 10.61L69.6053 10.6069L69.5909 10.6089L69.5393 10.6233L69.5381 10.6223Z"
            fill="white" />
    </mask>
    <g mask="url(#mask10_1406_2469)">
        <path d="M70.1338 10.4619L68.7693 10.8299L69.9342 13.9942L71.2987 13.6261L70.1338 10.4619Z"
            fill="#DBB368" />
        <mask id="mask11_1406_2469" style="mask-type:luminance" maskUnits="userSpaceOnUse" x="68"
            y="10" width="4" height="4">
            <path
                d="M70.1338 10.4619L68.7693 10.8299L69.9342 13.9942L71.2987 13.6261L70.1338 10.4619Z"
                fill="white" />
        </mask>
        <g mask="url(#mask11_1406_2469)">
            <path
                d="M70.1279 10.4614L68.7737 10.8268L69.9392 13.9909L71.2934 13.6254L70.1279 10.4614Z"
                fill="#DBB368" />
        </g>
    </g>
    <path
        d="M75.6794 3.87585L75.6171 3.90664C75.5055 3.97234 75.4096 4.0483 75.322 4.13247L74.7824 4.6724C74.4034 5.08608 74.0257 5.54287 73.6395 6.04585L72.5866 7.59482C72.2664 8.12859 72.0157 8.64184 71.831 9.14379C71.7219 9.42094 71.6524 9.71144 71.626 10.0092L71.7171 10.5388C71.7855 10.7082 71.9114 10.8365 72.2592 10.9925L72.6094 11.0233C72.8804 11.0274 73.2174 10.973 73.6215 10.8642C73.6575 10.854 73.6947 10.8447 73.733 10.8334L74.4322 10.5778C74.6457 10.4855 74.8064 10.4033 75.0246 10.2494L74.9563 10.157L74.8651 10.1693L74.8088 10.1939C74.7668 10.2175 74.7152 10.2422 74.6577 10.2709L74.172 10.5163L73.6611 10.6979C73.6143 10.7103 73.5652 10.7215 73.516 10.7339L72.7257 10.8006C72.3191 10.778 72.0793 10.5922 72.0037 10.2432L72.0085 9.6827C72.0373 9.51538 72.0805 9.35012 72.1381 9.18383L72.3299 8.69727C72.6657 7.96025 73.1154 7.19757 73.6887 6.41128C74.2559 5.62293 74.8423 4.928 75.4564 4.31929L75.5475 4.22075L75.761 4.1571L75.8293 4.34187L75.8449 4.47018L75.8485 4.49995C75.8845 4.80379 75.9133 5.10763 75.9325 5.41045L76.1963 9.89826C76.3006 11.3939 76.3978 12.4738 76.4985 13.4613L76.8115 13.4222C76.676 11.167 76.5153 8.46118 76.3306 5.30883L76.2395 4.40038C76.2251 4.27412 76.1999 4.15608 76.0788 3.81836L75.713 3.86969L75.6818 3.87687L75.6794 3.87585Z"
        fill="#DBB368" />
    <mask id="mask12_1406_2469" style="mask-type:luminance" maskUnits="userSpaceOnUse" x="71" y="3"
        width="6" height="11">
        <path
            d="M75.6794 3.87585L75.6171 3.90664C75.5055 3.97234 75.4096 4.0483 75.322 4.13247L74.7824 4.6724C74.4034 5.08608 74.0257 5.54287 73.6395 6.04585L72.5866 7.59482C72.2664 8.12859 72.0157 8.64184 71.831 9.14379C71.7219 9.42094 71.6524 9.71144 71.626 10.0092L71.7171 10.5388C71.7855 10.7082 71.9114 10.8365 72.2592 10.9925L72.6094 11.0233C72.8804 11.0274 73.2174 10.973 73.6215 10.8642C73.6575 10.854 73.6947 10.8447 73.733 10.8334L74.4322 10.5778C74.6457 10.4855 74.8064 10.4033 75.0246 10.2494L74.9563 10.157L74.8651 10.1693L74.8088 10.1939C74.7668 10.2175 74.7152 10.2422 74.6577 10.2709L74.172 10.5163L73.6611 10.6979C73.6143 10.7103 73.5652 10.7215 73.516 10.7339L72.7257 10.8006C72.3191 10.778 72.0793 10.5922 72.0037 10.2432L72.0085 9.6827C72.0373 9.51538 72.0805 9.35012 72.1381 9.18383L72.3299 8.69727C72.6657 7.96025 73.1154 7.19757 73.6887 6.41128C74.2559 5.62293 74.8423 4.928 75.4564 4.31929L75.5475 4.22075L75.761 4.1571L75.8293 4.34187L75.8449 4.47018L75.8485 4.49995C75.8845 4.80379 75.9133 5.10763 75.9325 5.41045L76.1963 9.89826C76.3006 11.3939 76.3978 12.4738 76.4985 13.4613L76.8115 13.4222C76.676 11.167 76.5153 8.46118 76.3306 5.30883L76.2395 4.40038C76.2251 4.27412 76.1999 4.15608 76.0788 3.81836L75.713 3.86969L75.6818 3.87687L75.6794 3.87585Z"
            fill="white" />
    </mask>
    <g mask="url(#mask12_1406_2469)">
        <path d="M76.0843 3.76123L69.8438 5.44441L73.1492 14.4231L79.3897 12.7399L76.0843 3.76123Z"
            fill="#DBB368" />
        <mask id="mask13_1406_2469" style="mask-type:luminance" maskUnits="userSpaceOnUse" x="69"
            y="3" width="11" height="12">
            <path
                d="M76.0843 3.76123L69.8438 5.44441L73.1492 14.4231L79.3897 12.7399L76.0843 3.76123Z"
                fill="white" />
        </mask>
        <g mask="url(#mask13_1406_2469)">
            <path
                d="M76.0596 3.77344L69.843 5.45014L73.1409 14.4083L79.3574 12.7316L76.0596 3.77344Z"
                fill="#DBB368" />
        </g>
    </g>
    <path
        d="M77.476 7.26461L77.4137 7.2954L77.3501 7.35391L77.3381 7.46375L77.3453 7.68444V7.80762C77.3477 7.96673 77.3525 8.12994 77.3549 8.29623L77.3717 9.45103C77.3801 9.83289 77.4041 10.1962 77.4521 10.574L77.4617 10.6007L77.542 10.6356L77.5864 10.6253L77.6331 10.5894L77.6523 10.5268L77.6763 10.4785L77.8322 10.5186L78.0805 10.4806C78.2004 10.4395 78.3071 10.3595 78.3923 10.2424L78.5266 9.69328C78.523 9.49106 78.463 9.31964 78.3455 9.17901C78.258 9.06713 78.1524 9.02607 77.9653 9.07636L77.9042 9.09997L77.7159 9.26113L77.6427 9.28064L77.6463 8.96858C77.6427 8.81666 77.6427 8.68732 77.6355 8.54156V8.44815C77.6164 8.1402 77.5996 7.82713 77.5816 7.50378L77.578 7.41037L77.542 7.25537H77.5084L77.4736 7.26461H77.476ZM78.0145 9.25702L78.0685 9.24984L78.1644 9.411L78.2028 9.58448C78.2124 9.69636 78.2088 9.80722 78.1704 10.033L78.0661 10.2927L77.9438 10.3235C77.8754 10.3184 77.8178 10.2794 77.6739 10.1141L77.6631 9.84931C77.6883 9.7056 77.7387 9.57011 77.8934 9.3258L78.0133 9.25908H78.0157L78.0145 9.25702Z"
        fill="#DBB368" />
    <mask id="mask14_1406_2469" style="mask-type:luminance" maskUnits="userSpaceOnUse" x="77" y="7"
        width="2" height="4">
        <path
            d="M77.476 7.26461L77.4137 7.2954L77.3501 7.35391L77.3381 7.46375L77.3453 7.68444V7.80762C77.3477 7.96673 77.3525 8.12994 77.3549 8.29623L77.3717 9.45103C77.3801 9.83289 77.4041 10.1962 77.4521 10.574L77.4617 10.6007L77.542 10.6356L77.5864 10.6253L77.6331 10.5894L77.6523 10.5268L77.6763 10.4785L77.8322 10.5186L78.0805 10.4806C78.2004 10.4395 78.3071 10.3595 78.3923 10.2424L78.5266 9.69328C78.523 9.49106 78.463 9.31964 78.3455 9.17901C78.258 9.06713 78.1524 9.02607 77.9653 9.07636L77.9042 9.09997L77.7159 9.26113L77.6427 9.28064L77.6463 8.96858C77.6427 8.81666 77.6427 8.68732 77.6355 8.54156V8.44815C77.6164 8.1402 77.5996 7.82713 77.5816 7.50378L77.578 7.41037L77.542 7.25537H77.5084L77.4736 7.26461H77.476ZM78.0145 9.25702L78.0685 9.24984L78.1644 9.411L78.2028 9.58448C78.2124 9.69636 78.2088 9.80722 78.1704 10.033L78.0661 10.2927L77.9438 10.3235C77.8754 10.3184 77.8178 10.2794 77.6739 10.1141L77.6631 9.84931C77.6883 9.7056 77.7387 9.57011 77.8934 9.3258L78.0133 9.25908H78.0157L78.0145 9.25702Z"
            fill="white" />
    </mask>
    <g mask="url(#mask14_1406_2469)">
        <path d="M77.6732 7.21729L76.3452 7.57546L77.482 10.6634L78.8099 10.3052L77.6732 7.21729Z"
            fill="#DBB368" />
        <mask id="mask15_1406_2469" style="mask-type:luminance" maskUnits="userSpaceOnUse" x="76"
            y="7" width="3" height="4">
            <path
                d="M77.6732 7.21729L76.3452 7.57546L77.482 10.6634L78.8099 10.3052L77.6732 7.21729Z"
                fill="white" />
        </mask>
        <g mask="url(#mask15_1406_2469)">
            <path
                d="M77.6688 7.20801L76.3455 7.56514L77.4814 10.649L78.8047 10.2918L77.6688 7.20801Z"
                fill="#DBB368" />
        </g>
    </g>
    <path
        d="M79.4558 8.70133C79.403 8.71878 79.3359 8.75369 79.2268 8.82143L79.0397 8.97849L78.9857 8.99286L78.8742 8.90355L78.753 8.91793L78.7015 9.02981L78.6991 9.11501L78.6943 9.12322C78.6835 9.40653 78.6763 9.69087 78.6643 10.0204L78.6703 10.1118L78.6787 10.1354L78.7243 10.1682L78.8106 10.1508L78.8838 10.1025L78.9114 9.99574L78.9329 9.88796L78.9377 9.85614C78.9593 9.66931 79.0037 9.49071 79.1116 9.20329L79.397 8.87584L79.5218 9.10475L79.71 9.00107L79.6393 8.72289L79.5074 8.68799L79.499 8.69004L79.4522 8.70236L79.4558 8.70133Z"
        fill="#DBB368" />
    <mask id="mask16_1406_2469" style="mask-type:luminance" maskUnits="userSpaceOnUse" x="78" y="8"
        width="2" height="3">
        <path
            d="M79.4558 8.70133C79.403 8.71878 79.3359 8.75369 79.2268 8.82143L79.0397 8.97849L78.9857 8.99286L78.8742 8.90355L78.753 8.91793L78.7015 9.02981L78.6991 9.11501L78.6943 9.12322C78.6835 9.40653 78.6763 9.69087 78.6643 10.0204L78.6703 10.1118L78.6787 10.1354L78.7243 10.1682L78.8106 10.1508L78.8838 10.1025L78.9114 9.99574L78.9329 9.88796L78.9377 9.85614C78.9593 9.66931 79.0037 9.49071 79.1116 9.20329L79.397 8.87584L79.5218 9.10475L79.71 9.00107L79.6393 8.72289L79.5074 8.68799L79.499 8.69004L79.4522 8.70236L79.4558 8.70133Z"
            fill="white" />
    </mask>
    <g mask="url(#mask16_1406_2469)">
        <path d="M79.6187 8.65088L78.2678 9.01522L78.6949 10.1754L80.0457 9.81104L79.6187 8.65088Z"
            fill="#DBB368" />
        <mask id="mask17_1406_2469" style="mask-type:luminance" maskUnits="userSpaceOnUse" x="78"
            y="8" width="3" height="3">
            <path
                d="M79.6187 8.65088L78.2678 9.01522L78.6949 10.1754L80.0457 9.81104L79.6187 8.65088Z"
                fill="white" />
        </mask>
        <g mask="url(#mask17_1406_2469)">
            <path
                d="M79.6187 8.65088L78.2678 9.01522L78.6949 10.1754L80.0457 9.81104L79.6187 8.65088Z"
                fill="#DBB368" />
        </g>
    </g>
    <path
        d="M80.462 8.19875C80.3541 8.2357 80.2629 8.29627 80.1922 8.37839L79.872 8.867C79.8144 9.01686 79.7856 9.16776 79.7964 9.4059L79.8228 9.47776L79.9751 9.59683L80.1634 9.55166C80.3073 9.49829 80.4236 9.41411 80.5436 9.24782L80.7798 9.10309L81.0376 9.12054C81.142 9.09282 81.2631 9.01481 81.4022 8.88444L81.4562 8.80233L81.4634 8.79822C81.5005 8.73971 81.5353 8.67607 81.5821 8.5416L81.6037 8.34246L81.5953 8.31885L81.4838 8.27266L81.4286 8.38249C81.4082 8.45845 81.377 8.54262 81.3003 8.73047L81.1216 8.91832L80.9657 8.92551L80.8817 8.67504L80.835 8.51901L80.6719 8.5416C80.6035 8.57958 80.5603 8.62988 80.48 8.82696L80.3541 9.08872L80.3409 9.12156L80.2773 9.22524L80.203 9.30531L80.1274 9.32584L80.107 9.28888V9.26835C80.0914 9.00557 80.1718 8.76332 80.3721 8.49233L80.4896 8.39686L80.6299 8.4369L80.6467 8.43279L80.7066 8.42971L80.7714 8.33014L80.6599 8.18848L80.4596 8.20081L80.462 8.19875Z"
        fill="#DBB368" />
    <mask id="mask18_1406_2469" style="mask-type:luminance" maskUnits="userSpaceOnUse" x="79" y="8"
        width="3" height="2">
        <path
            d="M80.462 8.19875C80.3541 8.2357 80.2629 8.29627 80.1922 8.37839L79.872 8.867C79.8144 9.01686 79.7856 9.16776 79.7964 9.4059L79.8228 9.47776L79.9751 9.59683L80.1634 9.55166C80.3073 9.49829 80.4236 9.41411 80.5436 9.24782L80.7798 9.10309L81.0376 9.12054C81.142 9.09282 81.2631 9.01481 81.4022 8.88444L81.4562 8.80233L81.4634 8.79822C81.5005 8.73971 81.5353 8.67607 81.5821 8.5416L81.6037 8.34246L81.5953 8.31885L81.4838 8.27266L81.4286 8.38249C81.4082 8.45845 81.377 8.54262 81.3003 8.73047L81.1216 8.91832L80.9657 8.92551L80.8817 8.67504L80.835 8.51901L80.6719 8.5416C80.6035 8.57958 80.5603 8.62988 80.48 8.82696L80.3541 9.08872L80.3409 9.12156L80.2773 9.22524L80.203 9.30531L80.1274 9.32584L80.107 9.28888V9.26835C80.0914 9.00557 80.1718 8.76332 80.3721 8.49233L80.4896 8.39686L80.6299 8.4369L80.6467 8.43279L80.7066 8.42971L80.7714 8.33014L80.6599 8.18848L80.4596 8.20081L80.462 8.19875Z"
            fill="white" />
    </mask>
    <g mask="url(#mask18_1406_2469)">
        <path d="M81.4575 7.92432L79.4536 8.46481L79.8807 9.62497L81.8846 9.08448L81.4575 7.92432Z"
            fill="#DBB368" />
        <mask id="mask19_1406_2469" style="mask-type:luminance" maskUnits="userSpaceOnUse" x="79"
            y="7" width="3" height="3">
            <path
                d="M81.4575 7.92432L79.4536 8.46481L79.8807 9.62497L81.8846 9.08448L81.4575 7.92432Z"
                fill="white" />
        </mask>
        <g mask="url(#mask19_1406_2469)">
            <path
                d="M81.4563 7.92383L79.4524 8.46432L79.8777 9.61958L81.8816 9.07909L81.4563 7.92383Z"
                fill="#DBB368" />
        </g>
    </g>
    <path
        d="M81.4179 5.62183L81.3556 5.65263L81.2968 5.70703L81.2848 5.7717L81.2788 5.82611L81.2836 5.86101C81.2812 5.87846 81.2836 5.8918 81.2836 5.90412L81.2992 6.38349C81.3148 6.65243 81.3292 6.9265 81.3352 7.2016L81.3688 8.29892C81.3712 8.50217 81.3795 8.70849 81.3891 8.95177L81.4011 8.98462L81.4671 9.0267L81.5858 8.98257L81.6554 8.89634L81.6698 8.82038C81.7021 8.53604 81.7837 8.26094 81.9972 7.8021L82.1639 7.58346L82.2406 7.67174C82.2766 7.74667 82.315 7.86882 82.3953 8.16035L82.616 8.3174L82.857 8.17472C82.947 8.09773 83.0213 8.02382 83.1484 7.89141L83.3031 7.68508L83.3463 7.58859L83.3271 7.51571L83.2444 7.52598L83.1892 7.58449C83.1568 7.61733 83.1172 7.66044 83.0225 7.78362L82.8474 7.97352L82.6867 8.01458L82.6172 7.84727L82.592 7.75488L82.538 7.57935L82.4697 7.46952C82.3941 7.37405 82.303 7.3371 82.1195 7.38637L82.0175 7.43154L81.8832 7.5968L81.7837 7.74667L81.6961 7.87703L81.6134 7.88319L81.6014 7.71998L81.6074 7.53521L81.6122 7.46336C81.6146 6.96448 81.593 6.46664 81.5438 5.88051L81.5043 5.69164V5.66803L81.4803 5.63107L81.4323 5.6167L81.4107 5.62286L81.4179 5.62183Z"
        fill="#DBB368" />
    <mask id="mask20_1406_2469" style="mask-type:luminance" maskUnits="userSpaceOnUse" x="81" y="5"
        width="3" height="5">
        <path
            d="M81.4179 5.62183L81.3556 5.65263L81.2968 5.70703L81.2848 5.7717L81.2788 5.82611L81.2836 5.86101C81.2812 5.87846 81.2836 5.8918 81.2836 5.90412L81.2992 6.38349C81.3148 6.65243 81.3292 6.9265 81.3352 7.2016L81.3688 8.29892C81.3712 8.50217 81.3795 8.70849 81.3891 8.95177L81.4011 8.98462L81.4671 9.0267L81.5858 8.98257L81.6554 8.89634L81.6698 8.82038C81.7021 8.53604 81.7837 8.26094 81.9972 7.8021L82.1639 7.58346L82.2406 7.67174C82.2766 7.74667 82.315 7.86882 82.3953 8.16035L82.616 8.3174L82.857 8.17472C82.947 8.09773 83.0213 8.02382 83.1484 7.89141L83.3031 7.68508L83.3463 7.58859L83.3271 7.51571L83.2444 7.52598L83.1892 7.58449C83.1568 7.61733 83.1172 7.66044 83.0225 7.78362L82.8474 7.97352L82.6867 8.01458L82.6172 7.84727L82.592 7.75488L82.538 7.57935L82.4697 7.46952C82.3941 7.37405 82.303 7.3371 82.1195 7.38637L82.0175 7.43154L81.8832 7.5968L81.7837 7.74667L81.6961 7.87703L81.6134 7.88319L81.6014 7.71998L81.6074 7.53521L81.6122 7.46336C81.6146 6.96448 81.593 6.46664 81.5438 5.88051L81.5043 5.69164V5.66803L81.4803 5.63107L81.4323 5.6167L81.4107 5.62286L81.4179 5.62183Z"
            fill="white" />
    </mask>
    <g mask="url(#mask20_1406_2469)">
        <path d="M82.5274 5.32617L80.2786 5.93234L81.4237 9.04487L83.6725 8.43869L82.5274 5.32617Z"
            fill="#DBB368" />
        <mask id="mask21_1406_2469" style="mask-type:luminance" maskUnits="userSpaceOnUse" x="80"
            y="5" width="4" height="5">
            <path
                d="M82.5274 5.32617L80.2786 5.93234L81.4237 9.04487L83.6725 8.43869L82.5274 5.32617Z"
                fill="white" />
        </mask>
        <g mask="url(#mask21_1406_2469)">
            <path
                d="M82.5274 5.32617L80.2786 5.93234L81.4237 9.04487L83.6725 8.43869L82.5274 5.32617Z"
                fill="#DBB368" />
        </g>
    </g>
    <path
        d="M83.3307 7.18547L83.266 7.21216L83.23 7.24501L83.2024 7.32097C83.1748 7.48932 83.1712 7.65561 83.2204 7.94405L83.2564 8.04362L83.4483 8.13498L83.5322 8.11958C83.615 8.097 83.7205 8.04157 83.8848 7.92865L84.0527 7.71001C84.1246 7.58991 84.175 7.46879 84.2446 7.22551L84.1978 7.03047L84.0647 7.29017C83.9819 7.4811 83.8728 7.63713 83.6018 7.87733L83.4854 7.85577C83.4531 7.75004 83.4363 7.64637 83.4387 7.52113V7.361L83.4255 7.21422L83.3307 7.1865V7.18445V7.18547ZM83.3523 6.43408L83.29 6.45256L83.2612 6.47104L83.2024 6.59935L83.194 6.76769L83.2096 6.93193L83.266 6.96272L83.3343 6.92269L83.3991 6.87445L83.4615 6.73998L83.4327 6.46488L83.3535 6.43408H83.3523Z"
        fill="#DBB368" />
    <mask id="mask22_1406_2469" style="mask-type:luminance" maskUnits="userSpaceOnUse" x="83" y="6"
        width="2" height="3">
        <path
            d="M83.3307 7.18547L83.266 7.21216L83.23 7.24501L83.2024 7.32097C83.1748 7.48932 83.1712 7.65561 83.2204 7.94405L83.2564 8.04362L83.4483 8.13498L83.5322 8.11958C83.615 8.097 83.7205 8.04157 83.8848 7.92865L84.0527 7.71001C84.1246 7.58991 84.175 7.46879 84.2446 7.22551L84.1978 7.03047L84.0647 7.29017C83.9819 7.4811 83.8728 7.63713 83.6018 7.87733L83.4854 7.85577C83.4531 7.75004 83.4363 7.64637 83.4387 7.52113V7.361L83.4255 7.21422L83.3307 7.1865V7.18445V7.18547ZM83.3523 6.43408L83.29 6.45256L83.2612 6.47104L83.2024 6.59935L83.194 6.76769L83.2096 6.93193L83.266 6.96272L83.3343 6.92269L83.3991 6.87445L83.4615 6.73998L83.4327 6.46488L83.3535 6.43408H83.3523Z"
            fill="white" />
    </mask>
    <g mask="url(#mask22_1406_2469)">
        <path d="M83.9232 6.2832L82.7278 6.60522L83.3085 8.18458L84.5039 7.86255L83.9232 6.2832Z"
            fill="#DBB368" />
        <mask id="mask23_1406_2469" style="mask-type:luminance" maskUnits="userSpaceOnUse" x="82"
            y="6" width="3" height="3">
            <path
                d="M83.9232 6.2832L82.7278 6.60522L83.3085 8.18458L84.5039 7.86255L83.9232 6.2832Z"
                fill="white" />
        </mask>
        <g mask="url(#mask23_1406_2469)">
            <path
                d="M83.9232 6.2832L82.7278 6.60522L83.3085 8.18458L84.5039 7.86255L83.9232 6.2832Z"
                fill="#DBB368" />
        </g>
    </g>
    <path
        d="M85.7674 6.05101L85.6955 6.09207L85.5911 6.21627C85.5312 6.28813 85.476 6.36306 85.386 6.49445L85.2793 6.64637L85.2206 6.71104L85.1822 6.69359L85.1678 6.57965L85.1438 6.49753L85.0239 6.46468L84.904 6.52833L84.8392 6.58786C84.7756 6.65048 84.7169 6.72028 84.6269 6.84551L84.5298 7.00051L84.4207 7.15859L84.3499 7.16885L84.3259 7.03028L84.3079 6.88349L84.2743 6.67717L84.1089 6.67511L84.0525 6.77879L84.0561 6.83627C84.0561 6.84448 84.0561 6.85783 84.0585 6.86604L84.0765 7.68005L84.0693 7.72932L84.0765 7.78886L84.0921 7.82991L84.164 7.86789L84.2935 7.81349L84.3775 7.69544L84.435 7.57637L84.5142 7.43061C84.6041 7.27253 84.6773 7.14935 84.7888 6.96664L84.8392 6.89684L84.8872 6.9112L84.9016 6.95124L84.8848 7.12985L84.8632 7.31667L84.8752 7.40187L84.9639 7.4419L85.0575 7.41624L85.1522 7.34541L85.2098 7.24481L85.2337 7.20273L85.2997 7.05286L85.3717 6.9266C85.4496 6.77674 85.5336 6.63097 85.6547 6.43799L85.7086 6.4072L85.7254 6.43697C85.7338 6.45647 85.7542 6.56117 85.8322 6.93174L86.0672 6.95329C86.2087 6.90813 86.3394 6.8024 86.4642 6.63611C86.5829 6.47597 86.6536 6.34048 86.6908 6.1475L86.6824 6.12594L86.5985 6.08283L86.5253 6.15879C86.5133 6.17829 86.457 6.2717 86.2615 6.59197L86.1272 6.66382C86.0672 6.65766 86.0324 6.58581 86.0145 6.31071L85.9353 6.01611L85.7674 6.05306V6.05101Z"
        fill="#DBB368" />
    <mask id="mask24_1406_2469" style="mask-type:luminance" maskUnits="userSpaceOnUse" x="84" y="6"
        width="3" height="2">
        <path
            d="M85.7674 6.05101L85.6955 6.09207L85.5911 6.21627C85.5312 6.28813 85.476 6.36306 85.386 6.49445L85.2793 6.64637L85.2206 6.71104L85.1822 6.69359L85.1678 6.57965L85.1438 6.49753L85.0239 6.46468L84.904 6.52833L84.8392 6.58786C84.7756 6.65048 84.7169 6.72028 84.6269 6.84551L84.5298 7.00051L84.4207 7.15859L84.3499 7.16885L84.3259 7.03028L84.3079 6.88349L84.2743 6.67717L84.1089 6.67511L84.0525 6.77879L84.0561 6.83627C84.0561 6.84448 84.0561 6.85783 84.0585 6.86604L84.0765 7.68005L84.0693 7.72932L84.0765 7.78886L84.0921 7.82991L84.164 7.86789L84.2935 7.81349L84.3775 7.69544L84.435 7.57637L84.5142 7.43061C84.6041 7.27253 84.6773 7.14935 84.7888 6.96664L84.8392 6.89684L84.8872 6.9112L84.9016 6.95124L84.8848 7.12985L84.8632 7.31667L84.8752 7.40187L84.9639 7.4419L85.0575 7.41624L85.1522 7.34541L85.2098 7.24481L85.2337 7.20273L85.2997 7.05286L85.3717 6.9266C85.4496 6.77674 85.5336 6.63097 85.6547 6.43799L85.7086 6.4072L85.7254 6.43697C85.7338 6.45647 85.7542 6.56117 85.8322 6.93174L86.0672 6.95329C86.2087 6.90813 86.3394 6.8024 86.4642 6.63611C86.5829 6.47597 86.6536 6.34048 86.6908 6.1475L86.6824 6.12594L86.5985 6.08283L86.5253 6.15879C86.5133 6.17829 86.457 6.2717 86.2615 6.59197L86.1272 6.66382C86.0672 6.65766 86.0324 6.58581 86.0145 6.31071L85.9353 6.01611L85.7674 6.05306V6.05101Z"
            fill="white" />
    </mask>
    <g mask="url(#mask24_1406_2469)">
        <path d="M86.5788 5.83984L83.6482 6.62978L84.1114 7.88889L87.042 7.09895L86.5788 5.83984Z"
            fill="#DBB368" />
        <mask id="mask25_1406_2469" style="mask-type:luminance" maskUnits="userSpaceOnUse" x="83"
            y="5" width="5" height="3">
            <path
                d="M86.5788 5.83984L83.6482 6.62978L84.1114 7.88889L87.042 7.09895L86.5788 5.83984Z"
                fill="white" />
        </mask>
        <g mask="url(#mask25_1406_2469)">
            <path
                d="M86.5722 5.83203L83.6487 6.62056L84.1122 7.8796L87.0357 7.09107L86.5722 5.83203Z"
                fill="#DBB368" />
        </g>
    </g>
</svg>